# xmcd
#
# Track frame offsets: 
#        150
#        15117
#        26360
#        40670
#        49002
#        67057
#        92085
#        104830
#        114367
#        130347
#        146450
#        165707
#        171522
#
# Disc length: 2361 seconds
#
# Revision: 12
# Processed by: cddbd v1.5.2PL0 Copyright (c) Steve Scherf et al.
# Submitted via: ExactAudioCopy v0.99pb5
#
DISCID=aa09370d
DTITLE=PINK FLOYD - The Wall ( 50DP 361 )
DYEAR=1979
DGENRE=Psychedelic\Rock*
TTITLE0=In The Flesh?
TTITLE1=The Thin Ice
TTITLE2=Another Brick In The Wall (Part I)
TTITLE3=The Happiest Days Of Our Lives
TTITLE4=Another Brick In The Wall (Part II)
TTITLE5=Mother
TTITLE6=Goodbye Blue Sky
TTITLE7=Empty Spaces
TTITLE8=Young Lust
TTITLE9=One Of My Turns
TTITLE10=Don't Leave Me Now
TTITLE11=Another Brick In The Wall (Part III)
TTITLE12=Goodbye Cruel World
EXTD=ID3G: 0\n
EXTT0=Pink Floyd
EXTT1=Pink Floyd
EXTT2=Pink Floyd
EXTT3=Pink Floyd
EXTT4=Pink Floyd
EXTT5=Pink Floyd
EXTT6=Pink Floyd
EXTT7=Pink Floyd
EXTT8=Pink Floyd
EXTT9=Pink Floyd
EXTT10=Pink Floyd
EXTT11=Pink Floyd
EXTT12=Pink Floyd
PLAYORDER=
